HIERARCHY
ROOT hip
{
  OFFSET 0 0 0
  CHANNELS 6 Xposition Yposition Zposition Zrotation Yrotation Xrotation
  JOINT abdomen
  {
    OFFSET 0 20.6881 -0.73152
    CHANNELS 3 Zrotation Xrotation Yrotation
    JOINT chest
    {
      OFFSET 0 11.7043 -0.48768
      CHANNELS 3 Zrotation Xrotation Yrotation
      JOINT neck
      {
        OFFSET 0 22.1894 -2.19456
        CHANNELS 3 Zrotation Xrotation Yrotation
        JOINT head
        {
          OFFSET -0.24384 7.07133 1.2192
          CHANNELS 3 Zrotation Xrotation Yrotation
          JOINT leftEye
          {
            OFFSET 4.14528 8.04674 8.04672
            CHANNELS 3 Zrotation Xrotation Yrotation
            End Site
            {
              OFFSET 1 0 0
            }
          }
          JOINT rightEye
          {
            OFFSET -3.6576 8.04674 8.04672
            CHANNELS 3 Zrotation Xrotation Yrotation
            End Site
            {
              OFFSET 1 0 0
            }
          }
        }
      }
      JOINT rCollar
      {
        OFFSET -2.68224 19.2634 -4.8768
        CHANNELS 3 Zrotation Xrotation Yrotation
        JOINT rShldr
        {
          OFFSET -8.77824 -1.95073 1.46304
          CHANNELS 3 Zrotation Xrotation Yrotation
          JOINT rForeArm
          {
            OFFSET -28.1742 -1.7115 0.48768
            CHANNELS 3 Zrotation Xrotation Yrotation
            JOINT rHand
            {
              OFFSET -22.5879 0.773209 7.07136
              CHANNELS 3 Zrotation Xrotation Yrotation
              JOINT rThumb1
              {
                OFFSET -1.2192 -0.487915 3.41376
                CHANNELS 3 Zrotation Xrotation Yrotation
                JOINT rThumb2
                {
                  OFFSET -3.37035 -0.52449 3.41376
                  CHANNELS 3 Zrotation Xrotation Yrotation
                  End Site
                  {
                    OFFSET -1.78271 -1.18214 1.43049
                  }
                }
              }
              JOINT rIndex1
              {
                OFFSET -7.75947 0.938293 5.60832
                CHANNELS 3 Zrotation Xrotation Yrotation
                JOINT rIndex2
                {
                  OFFSET -2.54057 -0.884171 1.56538
                  CHANNELS 3 Zrotation Xrotation Yrotation
                  End Site
                  {
                    OFFSET -1.62519 -0.234802 1.16502
                  }
                }
              }
              JOINT rMid1
              {
                OFFSET -8.24714 1.18213 3.41376
                CHANNELS 3 Zrotation Xrotation Yrotation
                JOINT rMid2
                {
                  OFFSET -3.10165 -0.590103 1.0647
                  CHANNELS 3 Zrotation Xrotation Yrotation
                  End Site
                  {
                    OFFSET -2.48547 -0.328903 0.83742
                  }
                }
              }
              JOINT rRing1
              {
                OFFSET -8.82822 0.546677 1.51678
                CHANNELS 3 Zrotation Xrotation Yrotation
                JOINT rRing2
                {
                  OFFSET -2.60934 -0.819778 -0.0198488
                  CHANNELS 3 Zrotation Xrotation Yrotation
                  End Site
                  {
                    OFFSET -2.33842 -0.294052 0.168128
                  }
                }
              }
              JOINT rPinky1
              {
                OFFSET -8.27202 -0.0477905 -0.4584
                CHANNELS 3 Zrotation Xrotation Yrotation
                JOINT rPinky2
                {
                  OFFSET -1.82734 -0.647385 -0.700984
                  CHANNELS 3 Zrotation Xrotation Yrotation
                  End Site
                  {
                    OFFSET -1.69225 -0.51767 -0.607171
                  }
                }
              }
            }
          }
        }
      }
      JOINT lCollar
      {
        OFFSET 2.68224 19.2634 -4.8768
        CHANNELS 3 Zrotation Xrotation Yrotation
        JOINT lShldr
        {
          OFFSET 8.77824 -1.95073 1.46304
          CHANNELS 3 Zrotation Xrotation Yrotation
          JOINT lForeArm
          {
            OFFSET 28.1742 -1.7115 0.48768
            CHANNELS 3 Zrotation Xrotation Yrotation
            JOINT lHand
            {
              OFFSET 22.5879 0.773209 7.07136
              CHANNELS 3 Zrotation Xrotation Yrotation
              JOINT lThumb1
              {
                OFFSET 1.2192 -0.487915 3.41376
                CHANNELS 3 Zrotation Xrotation Yrotation
                JOINT lThumb2
                {
                  OFFSET 3.37035 -0.52449 3.41376
                  CHANNELS 3 Zrotation Xrotation Yrotation
                  End Site
                  {
                    OFFSET 1.78271 -1.18214 1.43049
                  }
                }
              }
              JOINT lIndex1
              {
                OFFSET 7.75947 0.938293 5.60832
                CHANNELS 3 Zrotation Xrotation Yrotation
                JOINT lIndex2
                {
                  OFFSET 2.54057 -0.884171 1.56538
                  CHANNELS 3 Zrotation Xrotation Yrotation
                  End Site
                  {
                    OFFSET 1.62519 -0.234802 1.16502
                  }
                }
              }
              JOINT lMid1
              {
                OFFSET 8.24714 1.18213 3.41376
                CHANNELS 3 Zrotation Xrotation Yrotation
                JOINT lMid2
                {
                  OFFSET 3.10165 -0.590103 1.0647
                  CHANNELS 3 Zrotation Xrotation Yrotation
                  End Site
                  {
                    OFFSET 2.48547 -0.328903 0.83742
                  }
                }
              }
              JOINT lRing1
              {
                OFFSET 8.82822 0.546677 1.51678
                CHANNELS 3 Zrotation Xrotation Yrotation
                JOINT lRing2
                {
                  OFFSET 2.60934 -0.819778 -0.0198488
                  CHANNELS 3 Zrotation Xrotation Yrotation
                  End Site
                  {
                    OFFSET 2.33842 -0.294052 0.168128
                  }
                }
              }
              JOINT lPinky1
              {
                OFFSET 8.27202 -0.0477905 -0.4584
                CHANNELS 3 Zrotation Xrotation Yrotation
                JOINT lPinky2
                {
                  OFFSET 1.82734 -0.647385 -0.700984
                  CHANNELS 3 Zrotation Xrotation Yrotation
                  End Site
                  {
                    OFFSET 1.69225 -0.51767 -0.607171
                  }
                }
              }
            }
          }
        }
      }
    }
  }
  JOINT rButtock
  {
    OFFSET -8.77824 4.35084 1.2192
    CHANNELS 3 Zrotation Xrotation Yrotation
    JOINT rThigh
    {
      OFFSET 0 -1.70687 -2.19456
      CHANNELS 3 Zrotation Xrotation Yrotation
      JOINT rShin
      {
        OFFSET 0 -36.8199 0.73152
        CHANNELS 3 Zrotation Xrotation Yrotation
        JOINT rFoot
        {
          OFFSET 0.73152 -45.1104 -5.12064
          CHANNELS 3 Zrotation Xrotation Yrotation
          End Site
          {
            OFFSET -1.1221 -3.69964 12.103
          }
        }
      }
    }
  }
  JOINT lButtock
  {
    OFFSET 8.77824 4.35084 1.2192
    CHANNELS 3 Zrotation Xrotation Yrotation
    JOINT lThigh
    {
      OFFSET 0 -1.70687 -2.19456
      CHANNELS 3 Zrotation Xrotation Yrotation
      JOINT lShin
      {
        OFFSET 0 -36.8199 0.73152
        CHANNELS 3 Zrotation Xrotation Yrotation
        JOINT lFoot
        {
          OFFSET -0.73152 -45.1104 -5.12064
          CHANNELS 3 Zrotation Xrotation Yrotation
          End Site
          {
            OFFSET 1.1221 -3.69964 12.103
          }
        }
      }
    }
  }
}
MOTION
Frames:	4
Frame Time:	0.03333
11.803422714583576 1.10574471950531 63.80727308988571 -10.749997347593307 -20.395914316177368 -12.452369928359985 12.924564778804779 5.960194319486618 13.489833623170853 -1.7361244931817055 -6.3991545885801315 2.825744077563286 -1.7972168326377869 13.584833443164825 3.130670003592968 7.483206242322922 -26.10649287700653 10.617828145623207 0.07617243099957705 0.11575919575989246 -0.22760467138141394 -0.5968206748366356 0.31875137239694595 -0.1482233335264027 0.2077313675545156 0.5420192470774055 0.4822870809584856 80.38017153739929 50.902029275894165 -13.917034417390823 -29.39495086669922 -39.90640461444855 84.02017593383789 -4.435406103730202 11.110903322696686 -3.4931420534849167 0.014794960152357817 0.12098314356990159 -0.20765544846653938 -0.9161322936415672 -0.15288924565538764 -0.07941864780150354 -0.44029269833117723 -0.23620201041921973 0.5422477377578616 6.818042546510696 5.449513457715511 1.165618970990181 -0.06686823558993638 0.5144931189715862 -0.0752788782119751 2.4479643255472183 1.1625347658991814 0.16484100138768554 -0.25419479236006737 0.32125714235007763 0.06628088420256972 10.560833215713501 0.20966014824807644 -0.1449979143217206 -0.46162703074514866 -0.31520532444119453 0.3236939921043813 1.60343611612916 -0.7659761141985655 -1.1276304256170988 0.20744049455970526 0.03138865577057004 0.5336391041055322 -59.336010217666626 27.916415333747864 -29.303428530693054 31.12404227256775 -38.03674936294556 -80.01443088054657 3.6269551143050194 -34.76954787969589 6.78512915968895 -0.23636700818315148 -0.13378756935708225 -0.37193287163972855 -0.25981368497014046 0.2698893193155527 -0.1514850463718176 -0.336673641577363 -0.022812816314399242 0.48825721722096205 -7.789304628968239 5.497523657977581 -0.45096072368323803 0.5319002363830805 -0.9497941844165325 0.23953063180670142 -2.533974554389715 1.1278310883790255 0.1530049997381866 -0.5334834940731525 -0.3580811060965061 -0.4927125759422779 -9.61664266884327 0.12991765514016151 0.4946704627946019 0.0714298035018146 -0.23366466164588928 0.4280030680820346 -1.7633785866200924 -0.4752843361347914 0.07325842045247555 -0.29086626833304763 -0.08716898504644632 0.017358544282615185 8.825824856758118 0.06688490509986877 -2.3491041362285614 0.5832644551992416 40.81762611865997 5.984076708555222 -19.147429168224335 -19.539372324943542 -33.4109902381897 0.51387176848948 0.45286618173122406 -0.41311098262667656 74.50764656066895 -62.91271984577179 65.20271480083466 -0.5780737102031708 67.12342858314514 7.632554322481155 0.9187337011098862 5.628725588321686 0.14154285192489624
11.805915226228535 0.9137133955955505 63.9507000297308 -12.797847837209702 -17.961489111185074 -10.621948689222336 13.232883363962173 5.363855101168156 13.355040550231934 -1.7792114987969398 -6.294176280498505 2.92880829423666 -1.5766175463795662 13.39335322380066 2.9984189942479134 7.046174481511116 -25.201646983623505 9.644910469651222 0.09223246132023633 0.1195040624588728 -0.2159018162637949 -0.6057478627189994 0.3217668877914548 -0.1483549503609538 0.15105268685147166 0.47405047807842493 0.4475170187652111 81.55004382133484 50.441370606422424 -14.578641504049301 -29.376507997512817 -39.58699107170105 83.18812251091003 -5.370805710554123 10.047973394393921 -3.3610888570547104 0.05454564350657165 0.11570342467166483 -0.10808120481669903 -0.841483399271965 -0.17432386754080653 -0.06446070154197514 -0.4273452563211322 -0.2510285284370184 0.5418594460934401 6.807644292712212 5.438258573412895 1.1552711762487888 -0.020973040955141187 0.47307662665843964 -0.07129944395273924 2.4499080888926983 1.1717717908322811 0.11560765095055103 -0.2838895283639431 0.35939228720963 0.010187407024204731 10.513240098953247 0.2002570778131485 -0.14938917243853211 -0.425956416875124 -0.30043444130569696 0.3114652563817799 1.638944372534752 -0.7813896797597408 -1.0091989114880562 0.20911612082272768 0.05675736581906676 0.5400883499532938 -58.217164278030396 27.823162972927094 -30.389025807380676 31.02385103702545 -37.733176946640015 -79.69394981861115 2.74634700268507 -31.58845603466034 7.064693123102188 -0.2411475428380072 -0.13558395789004862 -0.3171365987509489 -0.27845872566103935 0.23248935118317604 -0.13166368938982487 -0.3339486848562956 0.014738738536834717 0.4857655707746744 -7.81062014400959 5.507790483534336 -0.41702122427523136 0.5185536481440067 -0.91807228513062 0.20958808483555913 -2.576274499297142 1.1027561221271753 0.1560222334228456 -0.720033310353756 -0.32452824292704463 -0.41708165779709816 -9.652235582470894 0.22018547169864178 0.4289511451497674 0.033163754269480705 -0.25194039568305016 0.4567793570458889 -1.789238601922989 -0.4556538350880146 0.11358040384948254 -0.25501368334516883 -0.0967268692329526 -0.013416262809187174 7.666904032230377 0.8554235100746155 -2.8779982030391693 -0.2068888396024704 41.12049579620361 6.258883774280548 -18.925001621246338 -19.947974681854248 -32.686807215213776 0.5393850244581699 0.3961548116058111 -0.41434396058321 75.52757799625397 -63.18911075592041 66.35777592658997 0.4369640350341797 68.72471272945404 5.734428763389587 0.8771483972668648 4.592133611440659 -0.8885239809751511
11.79427885916084 0.901846170425415 64.00495575368404 -17.58827179670334 -15.747298747301102 -4.883544221520424 14.183639287948608 4.867703765630722 13.635016232728958 -2.378990985453129 -6.349966898560524 3.472059890627861 -1.5414871461689472 13.678810000419617 3.1367747113108635 6.911439746618271 -24.966039061546326 8.02291564643383 -0.00373252434656024 0.22059207782149315 -0.19252468831837177 -0.5777553655207157 0.32878476195037365 -0.18228556495159864 0.1639643800444901 0.3940761834383011 0.40453742723912 83.94169449806213 51.39205813407898 -15.309603810310364 -30.048436224460602 -39.576232731342316 83.53340327739716 -6.235176399350166 13.08491125702858 -2.2521281987428665 0.042378336656838655 0.02059948048554361 -0.26090802624821663 -0.8234564401209354 -0.23601962020620704 -0.01689689001068473 -0.3606678871437907 -0.23749975953251123 0.5073659028857946 6.776943728327751 5.414336621761322 1.2070511374622583 0.05536401062272489 0.5248523969203234 -0.10037094354629517 2.4535879120230675 1.1511212959885597 0.04508768208324909 -0.1665733102709055 0.33686877228319645 -0.03536827862262726 10.564713701605797 0.19349133130162954 -0.17230481375008821 -0.3448305116035044 -0.24542392697185278 0.3715269360691309 1.6902660951018333 -0.7695090025663376 -0.9933875408023596 0.15064174309372902 -0.009675838518887758 0.5291166482493281 -57.27870225906372 27.163803577423096 -31.343548893928528 31.89609467983246 -40.367658734321594 -83.04693102836609 1.0000767186284065 -30.256969928741455 7.424822598695755 -0.1747410767711699 -0.07469408330507576 -0.2914438024163246 -0.1908032549545169 0.18159950617700815 -0.0697475764900446 -0.17463946714997292 -0.09769891854375601 0.47276779543608427 -7.83905491232872 5.623797029256821 -0.3320743446238339 0.40350976400077343 -1.1211882624775171 0.21001556189730763 -2.637978717684746 0.9565561171621084 0.29124529799446464 -1.114575695246458 -0.3309672209434211 -0.43080685660243034 -9.637319818139076 0.1378845702856779 0.4028091626241803 -0.011088734026998281 -0.23598074913024902 0.3645295137539506 -1.8576235324144363 -0.40897128637880087 0.16375770326703787 -0.20070297410711646 -0.1445740624330938 -0.03572172252461314 8.799976408481598 2.7294091880321503 -1.666463166475296 -1.610688641667366 39.53635364770889 4.277053847908974 -20.13317584991455 -19.514978975057602 -33.6041334271431 0.6650237180292606 0.3536339197307825 -0.45721651520580053 79.58475172519684 -66.98222637176514 69.58638310432434 2.9739971458911896 72.36027538776398 0.5898405611515045 0.6479539722204208 3.1438131630420685 -1.636781170964241
11.768740900792181 0.7537229061126709 64.02576749026775 -19.764287620782852 -12.556959986686707 2.405863031744957 14.240492731332779 5.545811802148819 13.252765238285065 -2.531960718333721 -6.702666655182838 3.6560963094234467 -1.6474766470491886 14.054036289453506 2.6403313502669334 6.9272493571043015 -24.974042773246765 6.440347284078598 -0.13238423969596624 0.1427340041846037 -0.12062982539646327 -0.4786195373162627 0.30941523145884275 -0.09309513727203012 0.09931478183716536 0.3211013227701187 0.4118423815816641 83.2206255197525 51.6152822971344 -13.742775321006775 -30.719948709011078 -40.36721348762512 85.30330717563629 -6.47109679877758 11.65273904800415 -1.8787700682878494 0.06723726983182132 0.03307462320663035 -0.23488271981477737 -0.6543095083907247 -0.31268532620742917 0.061740302480757236 -0.31218287302181125 -0.21581164794042706 0.42022361420094967 6.798815131187439 5.475269705057144 1.2205664534121752 -0.03309138701297343 0.4454568726941943 -0.15662558376789093 2.4896574206650257 1.232531201094389 0.06679316516965628 -0.16005654819309711 0.34005959518253803 -0.07045012665912509 10.539174377918243 0.2455095062032342 -0.16157794743776321 -0.2447906951420009 -0.22471098694950342 0.3251417982392013 1.804176326841116 -0.7724617794156075 -0.7812864147126675 0.09654466761276126 -0.05862703314051032 0.5098333256319165 -55.54479360580444 28.554987609386444 -30.611584782600403 32.00998663902283 -41.323935985565186 -85.03862679004669 -0.2699800953269005 -28.981984555721283 7.360281273722649 -0.13399471761658788 -0.044393251882866025 -0.3583805076777935 -0.13986400910653174 0.1413639821112156 -0.11857367120683193 -0.19046952947974205 -0.11213783640414476 0.4681323515251279 -7.878614142537117 5.715794786810875 -0.23188092978671193 0.4059081617742777 -1.017789440229535 0.08733584778383374 -2.6995330676436424 0.9412598982453346 0.30118346912786365 -1.0132813174277544 -0.264997745398432 -0.3120426437817514 -9.761392772197723 0.1971004530787468 0.3515054192394018 -0.05839217221364379 -0.2507899794727564 0.39176474791020155 -1.9506696984171867 -0.3841216256842017 0.2230867836624384 -0.150441185105592 -0.20417507272213697 -0.03361071925610304 5.674846172332764 1.6174069046974182 -4.4855935871601105 -6.7576854676008224 41.14506483078003 5.277418568730354 -20.19188404083252 -20.034087002277374 -32.692201137542725 0.678350105881691 0.26473736157640815 -0.4856271017342806 81.16287767887115 -67.3085868358612 70.41467607021332 10.034153312444687 74.23653960227966 -7.983039915561676 0.9880493581295013 2.031274437904358 -1.4620567113161087
